<?xml version="1.0" standalone="no"?>
<!DOCTYPE svg PUBLIC "-//W3C//DTD SVG 20010904//EN"
 "http://www.w3.org/TR/2001/REC-SVG-20010904/DTD/svg10.dtd">
<svg version="1.0" xmlns="http://www.w3.org/2000/svg"
 width="512.000000pt" height="512.000000pt" viewBox="0 0 512.000000 512.000000"
 preserveAspectRatio="xMidYMid meet">
<metadata>
Created by potrace 1.11, written by Peter Selinger 2001-2013
</metadata>
<g transform="translate(0.000000,512.000000) scale(0.100000,-0.100000)"
fill="#000000" stroke="none">
<path d="M1775 4940 c-1 -3 -4 -99 -5 -215 -1 -115 -4 -273 -5 -350 -5 -202
-17 -867 -17 -952 -1 -60 -4 -73 -17 -74 -26 -1 -353 3 -531 6 -91 2 -345 6
-565 10 -220 3 -419 8 -443 10 -26 2 -42 -1 -43 -8 -3 -24 -9 -305 -25 -1177
-3 -162 -6 -321 -7 -352 -1 -32 3 -59 8 -61 6 -2 364 -3 798 -3 433 1 788 -1
788 -4 1 -3 3 -360 4 -795 2 -434 3 -792 4 -795 2 -9 1609 -5 1618 3 9 10 8
-41 18 977 4 437 8 946 10 1130 2 184 4 494 6 688 2 237 6 355 13 360 6 5 370
8 809 8 519 -1 801 2 805 9 7 12 9 1554 2 1556 -12 4 -287 8 -885 13 -352 3
-919 9 -1260 12 -1007 10 -1076 10 -1080 4z"/>
</g>
</svg>
